<svg width="32" height="32" viewBox="0 0 32 32" fill="none" xmlns="http://www.w3.org/2000/svg">
<g clip-path="url(#clip0_1_7)">
<path d="M16 11C16 9.33333 17.19 7.66667 19.5717 7.66667C20.8345 7.66667 22.0457 7.16499 22.9387 6.27201C23.8317 5.37902 24.3333 4.16787 24.3333 2.905V1.83333M9.33333 11V10.1667C9.33333 8.84058 9.86012 7.56881 10.7978 6.63113C11.7355 5.69345 13.0073 5.16667 14.3333 5.16667C15.2174 5.16667 16.0652 4.81548 16.6904 4.19036C17.3155 3.56523 17.6667 2.71739 17.6667 1.83333V1M24.3333 15.3333V21C24.3333 23.6522 23.2798 26.1957 21.4044 28.0711C19.529 29.9464 16.9855 31 14.3333 31H11C8.34784 31 5.8043 29.9464 3.92893 28.0711C2.05357 26.1957 1 23.6522 1 21V15.3333C1 15.0681 1.10536 14.8138 1.29289 14.6262C1.48043 14.4387 1.73478 14.3333 2 14.3333H23.3333C23.5986 14.3333 23.8529 14.4387 24.0404 14.6262C24.228 14.8138 24.3333 15.0681 24.3333 15.3333Z" stroke="black" stroke-width="1.5" stroke-linecap="round" stroke-linejoin="round"/>
<path d="M22.6667 14.3333H26.8333C27.9384 14.3333 28.9982 14.7723 29.7796 15.5537C30.561 16.3351 31 17.3949 31 18.5C31 19.6051 30.561 20.6649 29.7796 21.4463C28.9982 22.2277 27.9384 22.6667 26.8333 22.6667H24.3333" stroke="black" stroke-width="1.5" stroke-linecap="round" stroke-linejoin="round"/>
</g>
<defs>
<clipPath id="clip0_1_7">
<rect width="32" height="32" fill="white"/>
</clipPath>
</defs>
</svg>
