<svg width="40" height="40" viewBox="0 0 40 40" fill="none" xmlns="http://www.w3.org/2000/svg">
<g clip-path="url(#clip0_2_5)">
<circle cx="20" cy="20" r="20" fill="#FAE9B6"/>
<g clip-path="url(#clip1_2_5)">
<path d="M21 14C21 12.3333 22.1156 10.6667 24.3484 10.6667C25.5324 10.6667 26.6678 10.165 27.505 9.27201C28.3422 8.37902 28.8125 7.16787 28.8125 5.905V4.83333M14.75 14V13.1667C14.75 11.8406 15.2439 10.5688 16.1229 9.63113C17.002 8.69345 18.1943 8.16667 19.4375 8.16667C20.2663 8.16667 21.0612 7.81548 21.6472 7.19036C22.2333 6.56523 22.5625 5.71739 22.5625 4.83333V4M28.8125 18.3333V24C28.8125 26.6522 27.8248 29.1957 26.0666 31.0711C24.3085 32.9464 21.9239 34 19.4375 34H16.3125C13.8261 34 11.4415 32.9464 9.68337 31.0711C7.92522 29.1957 6.9375 26.6522 6.9375 24V18.3333C6.9375 18.0681 7.03627 17.8138 7.21209 17.6262C7.3879 17.4387 7.62636 17.3333 7.875 17.3333H27.875C28.1236 17.3333 28.3621 17.4387 28.5379 17.6262C28.7137 17.8138 28.8125 18.0681 28.8125 18.3333Z" stroke="black" stroke-width="1.5" stroke-linecap="round" stroke-linejoin="round"/>
<path d="M27.25 17.3333H31.1562C32.1923 17.3333 33.1858 17.7723 33.9184 18.5537C34.6509 19.3351 35.0625 20.3949 35.0625 21.5C35.0625 22.6051 34.6509 23.6649 33.9184 24.4463C33.1858 25.2277 32.1923 25.6667 31.1562 25.6667H28.8125" stroke="black" stroke-width="1.5" stroke-linecap="round" stroke-linejoin="round"/>
</g>
</g>
<defs>
<clipPath id="clip0_2_5">
<rect width="40" height="40" fill="white"/>
</clipPath>
<clipPath id="clip1_2_5">
<rect width="30" height="32" fill="white" transform="translate(6 3)"/>
</clipPath>
</defs>
</svg>
