<svg width="30" height="32" viewBox="0 0 30 32" fill="none" xmlns="http://www.w3.org/2000/svg">
<g clip-path="url(#clip0_1_7)">
<path d="M15 11C15 9.33333 16.1156 7.66667 18.3484 7.66667C19.5324 7.66667 20.6678 7.16499 21.505 6.27201C22.3422 5.37902 22.8125 4.16787 22.8125 2.905V1.83333M8.75 11V10.1667C8.75 8.84058 9.24386 7.56881 10.1229 6.63113C11.002 5.69345 12.1943 5.16667 13.4375 5.16667C14.2663 5.16667 15.0612 4.81548 15.6472 4.19036C16.2333 3.56523 16.5625 2.71739 16.5625 1.83333V1M22.8125 15.3333V21C22.8125 23.6522 21.8248 26.1957 20.0666 28.0711C18.3085 29.9464 15.9239 31 13.4375 31H10.3125C7.8261 31 5.44153 29.9464 3.68337 28.0711C1.92522 26.1957 0.9375 23.6522 0.9375 21V15.3333C0.9375 15.0681 1.03627 14.8138 1.21209 14.6262C1.3879 14.4387 1.62636 14.3333 1.875 14.3333H21.875C22.1236 14.3333 22.3621 14.4387 22.5379 14.6262C22.7137 14.8138 22.8125 15.0681 22.8125 15.3333Z" stroke="white" stroke-width="1.5" stroke-linecap="round" stroke-linejoin="round"/>
<path d="M21.25 14.3333H25.1562C26.1923 14.3333 27.1858 14.7723 27.9184 15.5537C28.6509 16.3351 29.0625 17.3949 29.0625 18.5C29.0625 19.6051 28.6509 20.6649 27.9184 21.4463C27.1858 22.2277 26.1923 22.6667 25.1562 22.6667H22.8125" stroke="white" stroke-width="1.5" stroke-linecap="round" stroke-linejoin="round"/>
</g>
<defs>
<clipPath id="clip0_1_7">
<rect width="30" height="32" fill="white"/>
</clipPath>
</defs>
</svg>
